<svg xmlns="http://www.w3.org/2000/svg" xmlns:xlink="http://www.w3.org/1999/xlink" version="1.1" preserveAspectRatio="xMidYMid meet" viewBox="163.13 152.72 299.94 293.02"><defs><path d="M459.68 282.97C474.91 355.76 428.25 427.12 355.46 442.35C282.67 457.58 211.31 410.92 196.08 338.13C180.85 265.34 227.51 193.98 300.31 178.75C373.1 163.52 444.45 210.18 459.68 282.97Z" id="fO4hownQJ"/><path d="M268.11 289.96C273.62 289.57 277.84 287.14 280.66 282.15C282.07 279.59 283.6 277.03 285.52 274.85C292.18 266.92 300.24 261.8 311.12 262.69C316.88 263.08 321.23 260.64 324.18 255.91C325.97 252.96 327.76 249.89 328.91 246.69C331.35 239.27 329.55 235.3 322.39 231.33C320.98 230.56 319.44 229.41 317.91 229.41C312.66 229.16 307.28 228.64 302.16 229.54C298.58 230.05 296.66 230.56 294.61 227.36C293.07 225.06 293.59 222.88 295.51 220.84C296.15 220.2 296.4 218.28 296.27 218.15C292.56 216.74 290.26 213.8 288.08 210.72C287.83 210.34 287.19 209.96 286.67 209.96C278.35 209.7 270.16 208.68 262.35 214.31C254.93 219.68 246.1 220.2 237.65 215.46C232.15 212.39 227.41 208.16 221.01 206.63C214.35 205.09 208.47 205.22 202.71 209.44C197.33 213.41 191.83 217.38 185.81 220.32C181.46 222.5 181.71 227.75 184.91 229.92C191.06 234.28 197.71 237.48 205.39 236.84C209.49 236.58 213.59 235.81 217.81 235.68C219.22 235.68 221.52 236.96 221.78 237.99C222.29 239.78 221.78 242.21 221.01 244C219.47 247.59 217.43 250.92 215.51 254.37C211.41 261.67 208.59 269.09 209.75 277.8C210.26 281.51 209.62 285.48 210 289.32C210.39 293.92 211.41 298.92 215.76 301.35C220.5 304.04 226 304.8 231.63 303.91C238.16 302.88 244.82 302.24 250.83 306.08C256.21 309.41 258.51 315.17 261.33 320.55C263.76 325.16 263.25 329.12 258.9 332.32C258.13 332.84 257.87 333.99 257.23 334.76C255.31 336.93 256.34 338.47 258.39 339.75C262.74 342.56 267.09 345.25 271.31 348.07C276.18 351.27 280.15 355.49 281.68 361.12C284.5 372 283.35 383.14 282.32 394.28C281.68 401.57 282.83 408.36 287.06 414.5C291.15 420.39 296.91 423.84 303.31 426.4C310.48 429.22 315.47 425.89 317.52 420.52C319.57 415.01 320.98 409.12 322.51 403.49C323.92 398.24 325.71 393.51 330.19 389.92C332.88 387.75 335.57 385.19 337.23 382.24C343.38 371.24 345.68 359.08 347.09 346.79C347.35 344.74 347.6 342.56 347.99 340.52C349.01 335.78 346.96 330.66 343.12 329.38C338 327.72 332.63 326.69 327.51 325.03C323.03 323.62 318.55 322.21 314.45 320.16C309.46 317.73 304.98 313.64 299.86 311.84C290.77 308.77 281.17 307.24 271.95 304.8C266.19 303.27 260.31 301.48 254.8 299.04C251.22 297.64 247.89 295.59 247.63 291.49C254.67 290.98 261.33 290.47 268.11 289.96Z" id="l2xyjwS1E"/><path d="M332.88 208.8C334.42 211.75 335.83 214.82 337.23 217.76C338.26 220.07 338.13 223.4 340.95 224.29C346.19 225.96 351.7 225.83 356.69 223.91C363.09 221.48 369.23 218.28 375.38 214.95C380.24 212.39 385.11 209.7 387.92 204.45C388.82 202.79 389.33 201.51 387.41 199.84C380.63 194.21 373.2 189.73 364.63 188.2C354.26 186.28 344.53 188.58 336.72 196.26C334.42 198.95 332.75 202.02 330.58 204.96C331.6 206.76 332.37 207.78 332.88 208.8Z" id="daOcwcxd"/><path d="M254.16 298.92C259.67 301.35 265.43 303.14 271.31 304.68C280.66 307.24 290.13 308.77 299.22 311.72C304.47 313.38 308.82 317.48 313.81 320.04C318.03 322.08 322.51 323.62 326.87 324.9C331.99 326.56 337.36 327.59 342.48 329.25C346.45 330.53 348.37 335.65 347.35 340.39C346.96 342.44 346.71 344.61 346.45 346.66C345.17 359.08 342.87 371.24 336.59 382.12C334.93 385.06 332.24 387.62 329.55 389.8C325.07 393.38 323.28 398.12 321.87 403.36C320.34 409.12 318.93 414.88 316.88 420.39C314.83 425.76 309.84 429.09 302.67 426.28C296.27 423.72 290.51 420.26 286.42 414.37C282.19 408.23 281.04 401.44 281.68 394.15C282.71 383.01 283.86 371.88 281.04 361C279.63 355.36 275.54 351.14 270.67 347.94C266.45 345.12 262.1 342.31 257.75 339.62C255.7 338.34 254.67 336.8 256.59 334.63C257.23 333.86 257.49 332.84 258.26 332.2C262.61 329 263.12 325.16 260.69 320.42C257.87 315.04 255.57 309.28 250.19 305.96C244.18 302.24 237.52 302.88 230.99 303.78C225.36 304.68 219.99 303.78 215.12 301.22C210.77 298.79 209.75 293.92 209.36 289.19C209.11 285.35 209.62 281.51 209.11 277.67C207.95 268.96 210.9 261.54 214.87 254.24C216.79 250.79 218.71 247.46 220.37 243.88C221.14 242.08 221.65 239.65 221.14 237.86C220.88 236.84 218.58 235.56 217.17 235.56C213.07 235.56 208.98 236.32 204.75 236.71C196.95 237.22 190.42 234.02 184.27 229.8C181.07 227.62 180.82 222.37 185.17 220.2C191.19 217.25 196.69 213.28 202.07 209.32C207.83 204.96 213.71 204.96 220.37 206.5C226.77 208.04 231.63 212.13 237.01 215.33C245.46 220.2 254.29 219.56 261.71 214.18C269.52 208.55 277.59 209.7 286.03 209.83C286.55 209.83 287.19 210.21 287.44 210.6C289.62 213.67 291.92 216.61 295.63 218.02C295.76 218.02 295.38 220.07 294.87 220.71C292.95 222.76 292.43 224.93 293.97 227.24C296.02 230.44 297.94 229.92 301.52 229.41C306.64 228.64 312.02 229.03 317.27 229.28C318.8 229.41 320.34 230.44 321.75 231.2C328.91 235.17 330.71 239.01 328.27 246.56C327.25 249.76 325.46 252.96 323.54 255.78C320.59 260.52 316.24 262.95 310.48 262.56C299.6 261.8 291.41 266.79 284.88 274.72C283.09 276.9 281.55 279.46 280.02 282.02C277.2 286.88 272.98 289.32 267.47 289.83C261.46 290.47 254.67 290.98 247.63 291.49C247.89 295.59 251.22 297.64 254.16 298.92Z" id="aYvnGcM5C"/><path d="M336.85 196.52C344.66 188.84 354.39 186.53 364.75 188.45C373.33 189.99 380.75 194.47 387.54 200.1C389.46 201.64 388.82 203.04 388.05 204.71C385.36 209.96 380.37 212.64 375.51 215.2C369.49 218.53 363.35 221.73 356.82 224.16C351.83 225.96 346.32 226.21 341.07 224.55C338.13 223.65 338.39 220.32 337.36 218.02C335.95 214.95 334.55 212 333.01 209.06C332.37 207.78 331.73 206.76 330.58 204.96C332.75 202.02 334.42 198.95 336.85 196.52Z" id="dmEeIN79h"/><path d="M246.74 237.99C240.21 243.88 237.14 251.04 239.7 253.99C242.39 256.93 249.81 254.5 256.34 248.61C262.87 242.72 266.07 235.56 263.38 232.61C260.69 229.67 253.27 232.1 246.74 237.99Z" id="a1xEN44TNB"/><path d="M173.39 216.23C159.44 200.87 160.59 177.06 175.95 162.98C191.31 149.03 215.12 150.18 229.2 165.54C243.15 181.03 247.12 241.44 247.12 241.44C232.38 236.4 187.35 231.72 173.39 216.23ZM188.63 176.29C181.97 182.31 181.46 192.68 187.47 199.46C193.49 206.12 203.86 206.63 210.64 200.61C217.43 194.47 217.94 184.1 211.79 177.44C205.78 170.79 195.41 170.28 188.63 176.29Z" id="a2V9nroxe"/><path d="M355.47 442.36C282.67 457.59 211.32 410.92 196.09 338.13C180.86 265.34 227.52 193.98 300.31 178.75C373.1 163.52 444.46 210.18 459.69 282.98C474.92 355.77 428.26 427.12 355.47 442.36Z" id="a6bdqxHYMm"/><path d="M355.47 442.36C282.67 457.59 211.32 410.92 196.09 338.13C180.86 265.34 227.52 193.98 300.31 178.75C373.1 163.52 444.46 210.18 459.69 282.98C474.92 355.77 428.26 427.12 355.47 442.36Z" id="ffiOYpTbG"/><path d="M280.66 282.15C282.07 279.59 283.61 277.03 285.53 274.86C292.18 266.92 300.25 261.8 311.13 262.7C316.89 263.08 321.24 260.65 324.18 255.91C325.97 252.97 327.77 249.9 328.92 246.7C331.35 239.27 329.56 235.3 322.39 231.34C320.98 230.57 319.45 229.42 317.91 229.42C312.66 229.16 307.29 228.65 302.17 229.54C298.58 230.06 296.66 230.57 294.61 227.37C293.08 225.06 293.59 222.89 295.51 220.84C296.15 220.2 296.41 218.28 296.28 218.15C292.57 216.74 290.26 213.8 288.09 210.73C287.83 210.34 287.19 209.96 286.68 209.96C278.36 209.7 270.17 208.68 262.36 214.31C254.93 219.69 246.1 220.2 237.65 215.46C232.15 212.39 227.41 208.17 221.01 206.63C214.36 205.1 208.47 205.22 202.71 209.45C197.33 213.42 191.83 217.38 185.81 220.33C181.46 222.5 181.72 227.75 184.92 229.93C191.06 234.28 197.72 237.48 205.4 236.84C209.49 236.58 213.59 235.82 217.81 235.69C219.22 235.69 221.53 236.97 221.78 237.99C222.29 239.78 221.78 242.22 221.01 244.01C219.48 247.59 217.43 250.92 215.51 254.38C211.41 261.67 208.6 269.1 209.75 277.8C210.26 281.51 209.62 285.48 210.01 289.32C210.39 293.93 211.41 298.92 215.77 301.35C220.5 304.04 226.01 304.81 231.64 303.91C238.17 302.89 244.82 302.25 250.84 306.09C256.21 309.42 258.52 315.18 261.33 320.55C263.77 325.16 263.25 329.13 258.9 332.33C258.13 332.84 257.88 333.99 257.24 334.76C255.32 336.94 256.34 338.47 258.39 339.75C262.74 342.57 267.09 345.26 271.32 348.07C276.18 351.27 280.15 355.5 281.69 361.13C284.5 372.01 283.35 383.14 282.33 394.28C281.69 401.58 282.84 408.36 287.06 414.5C291.16 420.39 296.92 423.85 303.32 426.41C310.49 429.22 315.48 425.9 317.53 420.52C319.57 415.02 320.98 409.13 322.52 403.5C323.93 398.25 325.72 393.51 330.2 389.93C332.89 387.75 335.57 385.19 337.24 382.25C343.38 371.24 345.69 359.08 347.09 346.79C347.35 344.74 347.61 342.57 347.99 340.52C349.01 335.78 346.97 330.66 343.13 329.38C338.01 327.72 332.63 326.7 327.51 325.03C323.03 323.62 318.55 322.22 314.45 320.17C309.46 317.74 304.98 313.64 299.86 311.85C290.77 308.78 281.17 307.24 271.96 304.81C266.2 303.27 260.31 301.48 254.81 299.05C251.22 297.64 247.89 295.59 247.64 291.5C254.68 290.98 261.33 290.47 268.12 289.96C273.62 289.58 277.85 287.14 280.66 282.15Z" id="l6i6lb3Ty"/><path d="M280.66 282.15C282.07 279.59 283.61 277.03 285.53 274.86C292.18 266.92 300.25 261.8 311.13 262.7C316.89 263.08 321.24 260.65 324.18 255.91C325.97 252.97 327.77 249.9 328.92 246.7C331.35 239.27 329.56 235.3 322.39 231.34C320.98 230.57 319.45 229.42 317.91 229.42C312.66 229.16 307.29 228.65 302.17 229.54C298.58 230.06 296.66 230.57 294.61 227.37C293.08 225.06 293.59 222.89 295.51 220.84C296.15 220.2 296.41 218.28 296.28 218.15C292.57 216.74 290.26 213.8 288.09 210.73C287.83 210.34 287.19 209.96 286.68 209.96C278.36 209.7 270.17 208.68 262.36 214.31C254.93 219.69 246.1 220.2 237.65 215.46C232.15 212.39 227.41 208.17 221.01 206.63C214.36 205.1 208.47 205.22 202.71 209.45C197.33 213.42 191.83 217.38 185.81 220.33C181.46 222.5 181.72 227.75 184.92 229.93C191.06 234.28 197.72 237.48 205.4 236.84C209.49 236.58 213.59 235.82 217.81 235.69C219.22 235.69 221.53 236.97 221.78 237.99C222.29 239.78 221.78 242.22 221.01 244.01C219.48 247.59 217.43 250.92 215.51 254.38C211.41 261.67 208.6 269.1 209.75 277.8C210.26 281.51 209.62 285.48 210.01 289.32C210.39 293.93 211.41 298.92 215.77 301.35C220.5 304.04 226.01 304.81 231.64 303.91C238.17 302.89 244.82 302.25 250.84 306.09C256.21 309.42 258.52 315.18 261.33 320.55C263.77 325.16 263.25 329.13 258.9 332.33C258.13 332.84 257.88 333.99 257.24 334.76C255.32 336.94 256.34 338.47 258.39 339.75C262.74 342.57 267.09 345.26 271.32 348.07C276.18 351.27 280.15 355.5 281.69 361.13C284.5 372.01 283.35 383.14 282.33 394.28C281.69 401.58 282.84 408.36 287.06 414.5C291.16 420.39 296.92 423.85 303.32 426.41C310.49 429.22 315.48 425.9 317.53 420.52C319.57 415.02 320.98 409.13 322.52 403.5C323.93 398.25 325.72 393.51 330.2 389.93C332.89 387.75 335.57 385.19 337.24 382.25C343.38 371.24 345.69 359.08 347.09 346.79C347.35 344.74 347.61 342.57 347.99 340.52C349.01 335.78 346.97 330.66 343.13 329.38C338.01 327.72 332.63 326.7 327.51 325.03C323.03 323.62 318.55 322.22 314.45 320.17C309.46 317.74 304.98 313.64 299.86 311.85C290.77 308.78 281.17 307.24 271.96 304.81C266.2 303.27 260.31 301.48 254.81 299.05C251.22 297.64 247.89 295.59 247.64 291.5C254.68 290.98 261.33 290.47 268.12 289.96C273.62 289.58 277.85 287.14 280.66 282.15Z" id="ljcKSe4C9"/><path d="M337.24 217.77C338.26 220.07 338.13 223.4 340.95 224.3C346.2 225.96 351.7 225.83 356.69 223.91C363.09 221.48 369.24 218.28 375.38 214.95C380.25 212.39 385.11 209.7 387.93 204.46C388.82 202.79 389.33 201.51 387.41 199.85C380.63 194.22 373.21 189.74 364.63 188.2C354.26 186.28 344.53 188.58 336.73 196.26C334.42 198.95 332.76 202.02 330.58 204.97C331.61 206.76 332.37 207.78 332.89 208.81C334.42 211.75 335.83 214.82 337.24 217.77Z" id="abmiQAvxU"/><path d="M337.24 217.77C338.26 220.07 338.13 223.4 340.95 224.3C346.2 225.96 351.7 225.83 356.69 223.91C363.09 221.48 369.24 218.28 375.38 214.95C380.25 212.39 385.11 209.7 387.93 204.46C388.82 202.79 389.33 201.51 387.41 199.85C380.63 194.22 373.21 189.74 364.63 188.2C354.26 186.28 344.53 188.58 336.73 196.26C334.42 198.95 332.76 202.02 330.58 204.97C331.61 206.76 332.37 207.78 332.89 208.81C334.42 211.75 335.83 214.82 337.24 217.77Z" id="aewnMBmL3"/><path d="M271.32 304.68C280.66 307.24 290.13 308.78 299.22 311.72C304.47 313.38 308.82 317.48 313.81 320.04C318.04 322.09 322.52 323.62 326.87 324.9C331.99 326.57 337.37 327.59 342.49 329.26C346.45 330.54 348.37 335.66 347.35 340.39C346.97 342.44 346.71 344.62 346.45 346.66C345.17 359.08 342.87 371.24 336.6 382.12C334.93 385.06 332.25 387.62 329.56 389.8C325.08 393.38 323.29 398.12 321.88 403.37C320.34 409.13 318.93 414.89 316.89 420.39C314.84 425.77 309.85 429.1 302.68 426.28C296.28 423.72 290.52 420.26 286.42 414.38C282.2 408.23 281.05 401.45 281.69 394.15C282.71 383.02 283.86 371.88 281.05 361C279.64 355.37 275.54 351.14 270.68 347.94C266.45 345.13 262.1 342.31 257.75 339.62C255.7 338.34 254.68 336.81 256.6 334.63C257.24 333.86 257.49 332.84 258.26 332.2C262.61 329 263.13 325.16 260.69 320.42C257.88 315.05 255.57 309.29 250.2 305.96C244.18 302.25 237.53 302.89 231 303.78C225.37 304.68 219.99 303.78 215.13 301.22C210.77 298.79 209.75 293.93 209.37 289.19C209.11 285.35 209.62 281.51 209.11 277.67C207.96 268.97 210.9 261.54 214.87 254.25C216.79 250.79 218.71 247.46 220.37 243.88C221.14 242.09 221.65 239.66 221.14 237.86C220.89 236.84 218.58 235.56 217.17 235.56C213.08 235.56 208.98 236.33 204.76 236.71C196.95 237.22 190.42 234.02 184.28 229.8C181.08 227.62 180.82 222.38 185.17 220.2C191.19 217.26 196.69 213.29 202.07 209.32C207.83 204.97 213.72 204.97 220.37 206.5C226.77 208.04 231.64 212.14 237.01 215.34C245.46 220.2 254.29 219.56 261.72 214.18C269.53 208.55 277.59 209.7 286.04 209.83C286.55 209.83 287.19 210.22 287.45 210.6C289.62 213.67 291.93 216.62 295.64 218.02C295.77 218.02 295.38 220.07 294.87 220.71C292.95 222.76 292.44 224.94 293.97 227.24C296.02 230.44 297.94 229.93 301.53 229.42C306.65 228.65 312.02 229.03 317.27 229.29C318.81 229.42 320.34 230.44 321.75 231.21C328.92 235.18 330.71 239.02 328.28 246.57C327.25 249.77 325.46 252.97 323.54 255.78C320.6 260.52 316.25 262.95 310.49 262.57C299.61 261.8 291.41 266.79 284.89 274.73C283.09 276.9 281.56 279.46 280.02 282.02C277.21 286.89 272.98 289.32 267.48 289.83C261.46 290.47 254.68 290.98 247.64 291.5C247.89 295.59 251.22 297.64 254.17 298.92C259.67 301.35 265.43 303.14 271.32 304.68Z" id="e4npJOFaeO"/><path d="M272.81 303.9C282.15 306.46 291.62 308 300.71 310.94C305.96 312.6 310.31 316.7 315.3 319.26C319.53 321.31 324.01 322.84 328.36 324.12C333.48 325.79 338.86 326.81 343.98 328.48C347.94 329.76 349.86 334.88 348.84 339.61C348.46 341.66 348.2 343.84 347.94 345.88C346.66 358.3 344.36 370.46 338.09 381.34C336.42 384.28 333.74 386.84 331.05 389.02C326.57 392.6 324.78 397.34 323.37 402.59C321.83 408.35 320.42 414.11 318.38 419.61C316.33 424.99 311.34 428.32 304.17 425.5C297.77 422.94 292.01 419.48 287.91 413.6C283.69 407.45 282.54 400.67 283.18 393.37C284.2 382.24 285.35 371.1 282.54 360.22C281.13 354.59 277.03 350.36 272.17 347.16C267.94 344.35 263.59 341.53 259.24 338.84C257.19 337.56 256.17 336.03 258.09 333.85C258.73 333.08 258.98 332.06 259.75 331.42C264.1 328.22 264.62 324.38 262.18 319.64C259.37 314.27 257.06 308.51 251.69 305.18C245.67 301.47 239.02 302.11 232.49 303C226.86 303.9 221.48 303 216.62 300.44C212.26 298.01 211.24 293.15 210.86 288.41C210.6 284.57 211.11 280.73 210.6 276.89C209.45 268.19 212.39 260.76 216.36 253.47C218.28 250.01 220.2 246.68 221.86 243.1C222.63 241.31 223.14 238.88 222.63 237.08C222.38 236.06 220.07 234.78 218.66 234.78C214.57 234.78 210.47 235.55 206.25 235.93C198.44 236.44 191.91 233.24 185.77 229.02C182.57 226.84 182.31 221.6 186.66 219.42C192.68 216.48 198.18 212.51 203.56 208.54C209.32 204.19 215.21 204.19 221.86 205.72C228.26 207.26 233.13 211.36 238.5 214.56C246.95 219.42 255.78 218.78 263.21 213.4C271.02 207.77 279.08 208.92 287.53 209.05C288.04 209.05 288.68 209.44 288.94 209.82C291.11 212.89 293.42 215.84 297.13 217.24C297.26 217.24 296.87 219.29 296.36 219.93C294.44 221.98 293.93 224.16 295.46 226.46C297.51 229.66 299.43 229.15 303.02 228.64C308.14 227.87 313.51 228.25 318.76 228.51C320.3 228.64 321.83 229.66 323.24 230.43C330.41 234.4 332.2 238.24 329.77 245.79C328.74 248.99 326.95 252.19 325.03 255C322.09 259.74 317.74 262.17 311.98 261.79C301.1 261.02 292.9 266.01 286.38 273.95C284.58 276.12 283.05 278.68 281.51 281.24C278.7 286.11 274.47 288.54 268.97 289.05C262.95 289.69 256.17 290.2 249.13 290.72C249.38 294.81 252.71 296.86 255.66 298.14C261.16 300.57 266.92 302.36 272.81 303.9Z" id="c1hmqtVjmn"/><path d="M364.76 188.46C373.33 189.99 380.76 194.47 387.54 200.1C389.46 201.64 388.82 203.05 388.05 204.71C385.37 209.96 380.37 212.65 375.51 215.21C369.49 218.54 363.35 221.74 356.82 224.17C351.83 225.96 346.33 226.22 341.08 224.55C338.13 223.66 338.39 220.33 337.37 218.02C335.96 214.95 334.55 212.01 333.01 209.06C332.37 207.78 331.73 206.76 330.58 204.97C332.76 202.02 334.42 198.95 336.85 196.52C344.66 188.84 354.39 186.54 364.76 188.46Z" id="c3rgQhDZ8O"/><path d="M364.76 188.46C373.33 189.99 380.76 194.47 387.54 200.1C389.46 201.64 388.82 203.05 388.05 204.71C385.37 209.96 380.37 212.65 375.51 215.21C369.49 218.54 363.35 221.74 356.82 224.17C351.83 225.96 346.33 226.22 341.08 224.55C338.13 223.66 338.39 220.33 337.37 218.02C335.96 214.95 334.55 212.01 333.01 209.06C332.37 207.78 331.73 206.76 330.58 204.97C332.76 202.02 334.42 198.95 336.85 196.52C344.66 188.84 354.39 186.54 364.76 188.46Z" id="d3shRdsyAA"/><path d="M239.7 253.99C242.39 256.94 249.81 254.5 256.34 248.62C262.87 242.73 266.07 235.56 263.38 232.62C260.69 229.67 253.27 232.1 246.74 237.99C240.21 243.88 237.14 251.05 239.7 253.99Z" id="d3DB3Y3W74"/><path d="M239.7 253.99C242.39 256.94 249.81 254.5 256.34 248.62C262.87 242.73 266.07 235.56 263.38 232.62C260.69 229.67 253.27 232.1 246.74 237.99C240.21 243.88 237.14 251.05 239.7 253.99Z" id="a5nnikYs6"/><path d="M175.96 162.98C191.32 149.03 215.13 150.18 229.21 165.54C243.16 181.03 247.13 241.45 247.13 241.45C232.38 236.4 187.35 231.72 173.4 216.23C159.45 200.87 160.6 177.06 175.96 162.98ZM187.48 199.46C193.49 206.12 203.86 206.63 210.65 200.62C217.43 194.47 217.94 184.1 211.8 177.45C205.78 170.79 195.41 170.28 188.63 176.3C181.97 182.31 181.46 192.68 187.48 199.46Z" id="b4gpuA6T29"/><path d="M175.96 162.98C191.32 149.03 215.13 150.18 229.21 165.54C243.16 181.03 247.13 241.45 247.13 241.45C232.38 236.4 187.35 231.72 173.4 216.23C159.45 200.87 160.6 177.06 175.96 162.98ZM187.48 199.46C193.49 206.12 203.86 206.63 210.65 200.62C217.43 194.47 217.94 184.1 211.8 177.45C205.78 170.79 195.41 170.28 188.63 176.3C181.97 182.31 181.46 192.68 187.48 199.46Z" id="bXTryx0f3"/></defs><g><g><g><use xlink:href="#fO4hownQJ" opacity="1" fill="#45bbc6" fill-opacity="1"/><g><use xlink:href="#fO4hownQJ" opacity="1" fill-opacity="0" stroke="#000000" stroke-width="1" stroke-opacity="0"/></g></g><g><use xlink:href="#l2xyjwS1E" opacity="1" fill="#cce4c4" fill-opacity="1"/><g><use xlink:href="#l2xyjwS1E" opacity="1" fill-opacity="0" stroke="#000000" stroke-width="1" stroke-opacity="0"/></g></g><g><use xlink:href="#daOcwcxd" opacity="1" fill="#cce4c4" fill-opacity="1"/><g><use xlink:href="#daOcwcxd" opacity="1" fill-opacity="0" stroke="#000000" stroke-width="1" stroke-opacity="0"/></g></g><g><use xlink:href="#aYvnGcM5C" opacity="1" fill="#cce4c4" fill-opacity="1"/><g><use xlink:href="#aYvnGcM5C" opacity="1" fill-opacity="0" stroke="#000000" stroke-width="1" stroke-opacity="0"/></g></g><g><use xlink:href="#dmEeIN79h" opacity="1" fill="#cce4c4" fill-opacity="1"/><g><use xlink:href="#dmEeIN79h" opacity="1" fill-opacity="0" stroke="#000000" stroke-width="1" stroke-opacity="0"/></g></g><g><use xlink:href="#a1xEN44TNB" opacity="1" fill="#1e4c4c" fill-opacity="1"/><g><use xlink:href="#a1xEN44TNB" opacity="1" fill-opacity="0" stroke="#000000" stroke-width="1" stroke-opacity="0"/></g></g><g><use xlink:href="#a2V9nroxe" opacity="1" fill="#fcc020" fill-opacity="1"/><g><use xlink:href="#a2V9nroxe" opacity="1" fill-opacity="0" stroke="#000000" stroke-width="1" stroke-opacity="0"/></g></g><g><use xlink:href="#a6bdqxHYMm" opacity="1" fill="#45bbc6" fill-opacity="1"/><g><use xlink:href="#a6bdqxHYMm" opacity="1" fill-opacity="0" stroke="#000000" stroke-width="1" stroke-opacity="0"/></g></g><g><use xlink:href="#ffiOYpTbG" opacity="1" fill="#000000" fill-opacity="0"/><g><use xlink:href="#ffiOYpTbG" opacity="1" fill-opacity="0" stroke="#000000" stroke-width="1" stroke-opacity="0"/></g></g><g><use xlink:href="#l6i6lb3Ty" opacity="1" fill="#cce4c4" fill-opacity="1"/><g><use xlink:href="#l6i6lb3Ty" opacity="1" fill-opacity="0" stroke="#000000" stroke-width="1" stroke-opacity="0"/></g></g><g><use xlink:href="#ljcKSe4C9" opacity="1" fill="#000000" fill-opacity="0"/><g><use xlink:href="#ljcKSe4C9" opacity="1" fill-opacity="0" stroke="#000000" stroke-width="1" stroke-opacity="0"/></g></g><g><use xlink:href="#abmiQAvxU" opacity="1" fill="#cce4c4" fill-opacity="1"/><g><use xlink:href="#abmiQAvxU" opacity="1" fill-opacity="0" stroke="#000000" stroke-width="1" stroke-opacity="0"/></g></g><g><use xlink:href="#aewnMBmL3" opacity="1" fill="#000000" fill-opacity="0"/><g><use xlink:href="#aewnMBmL3" opacity="1" fill-opacity="0" stroke="#000000" stroke-width="1" stroke-opacity="0"/></g></g><g><use xlink:href="#e4npJOFaeO" opacity="1" fill="#cce4c4" fill-opacity="1"/><g><use xlink:href="#e4npJOFaeO" opacity="1" fill-opacity="0" stroke="#000000" stroke-width="1" stroke-opacity="0"/></g></g><g><use xlink:href="#c1hmqtVjmn" opacity="1" fill="#000000" fill-opacity="0"/><g><use xlink:href="#c1hmqtVjmn" opacity="1" fill-opacity="0" stroke="#000000" stroke-width="1" stroke-opacity="0"/></g></g><g><use xlink:href="#c3rgQhDZ8O" opacity="1" fill="#cce4c4" fill-opacity="1"/><g><use xlink:href="#c3rgQhDZ8O" opacity="1" fill-opacity="0" stroke="#000000" stroke-width="1" stroke-opacity="0"/></g></g><g><use xlink:href="#d3shRdsyAA" opacity="1" fill="#000000" fill-opacity="0"/><g><use xlink:href="#d3shRdsyAA" opacity="1" fill-opacity="0" stroke="#000000" stroke-width="1" stroke-opacity="0"/></g></g><g><use xlink:href="#d3DB3Y3W74" opacity="1" fill="#1e4c4c" fill-opacity="1"/><g><use xlink:href="#d3DB3Y3W74" opacity="1" fill-opacity="0" stroke="#000000" stroke-width="1" stroke-opacity="0"/></g></g><g><use xlink:href="#a5nnikYs6" opacity="1" fill="#000000" fill-opacity="0"/><g><use xlink:href="#a5nnikYs6" opacity="1" fill-opacity="0" stroke="#000000" stroke-width="1" stroke-opacity="0"/></g></g><g><use xlink:href="#b4gpuA6T29" opacity="1" fill="#fcc020" fill-opacity="1"/><g><use xlink:href="#b4gpuA6T29" opacity="1" fill-opacity="0" stroke="#000000" stroke-width="1" stroke-opacity="0"/></g></g><g><use xlink:href="#bXTryx0f3" opacity="1" fill="#000000" fill-opacity="0"/><g><use xlink:href="#bXTryx0f3" opacity="1" fill-opacity="0" stroke="#000000" stroke-width="1" stroke-opacity="0"/></g></g></g></g></svg>